<?xml version="1.0" standalone="no"?>
<!DOCTYPE svg PUBLIC "-//W3C//DTD SVG 1.1//EN" "http://www.w3.org/Graphics/SVG/1.1/DTD/svg11.dtd" >
<svg xmlns="http://www.w3.org/2000/svg" xmlns:xlink="http://www.w3.org/1999/xlink" version="1.1">
<metadata>
Created by FontForge 20190801 at Sat Oct  9 20:29:02 2004
 By Jimmy Wärting
Designed by sk89q. Derivative typeface (c) 2004 The Risen Realm (http://www.therisenrealm.com) and Keiichi Anime Forever (http://anime.therisenrealm.com). Original type (c) Kishimoto Masashi, Shueisha, TV Tokyo. All Rights Reserved.
</metadata>
<defs>
<font id="NinjaNaruto" horiz-adv-x="1289" >
  <font-face 
    font-family="Ninja Naruto"
    font-weight="400"
    font-stretch="normal"
    units-per-em="2048"
    panose-1="2 0 0 0 0 0 0 0 0 0"
    ascent="1638"
    descent="-410"
    x-height="1848"
    cap-height="1850"
    bbox="-16 -384 1768 1992.53"
    underline-thickness="48"
    underline-position="-188"
    unicode-range="U+0020-007E"
  />
<missing-glyph horiz-adv-x="828" 
d="M118 1699q-46 -192 -21 -354l21 -83q29 -125 20 -229v-374q-20 -99 -20 -166l-42 -208l42 -125l83 -62l62 42q306 -23 520 41q105 35 166 83v83l-42 188l21 62v62v83l-21 84v62v83v83v63v270q38 118 21 249l-62 63q-99 20 -166 20q-289 -39 -520 42zM616 1408l21 -63
v-561q18 -192 0 -333q-147 0 -249 -20v62l21 62v63v62v62l20 63v83v62l-20 63v208l-21 187h228z" />
    <glyph glyph-name=".notdef" horiz-adv-x="828" 
d="M118 1699q-46 -192 -21 -354l21 -83q29 -125 20 -229v-374q-20 -99 -20 -166l-42 -208l42 -125l83 -62l62 42q306 -23 520 41q105 35 166 83v83l-42 188l21 62v62v83l-21 84v62v83v83v63v270q38 118 21 249l-62 63q-99 20 -166 20q-289 -39 -520 42zM616 1408l21 -63
v-561q18 -192 0 -333q-147 0 -249 -20v62l21 62v63v62v62l20 63v83v62l-20 63v208l-21 187h228z" />
    <glyph glyph-name=".null" horiz-adv-x="0" 
 />
    <glyph glyph-name="nonmarkingreturn" horiz-adv-x="390" 
 />
    <glyph glyph-name="space" unicode=" " horiz-adv-x="390" 
 />
    <glyph glyph-name="exclam" unicode="!" horiz-adv-x="510" 
d="M3 1639l71 -165v-94l23 -118l48 -402q46 -221 23 -378q188 -169 331 24q-39 316 0 543l-24 165l-47 189q-93 223 -118 378l-213 71q-65 -118 -94 -213zM168 10q628 83 71 331q-105 -162 -71 -331z" />
    <glyph glyph-name="quotedbl" unicode="&#x22;" horiz-adv-x="815" 
d="M277 1859q-151 -62 -264 -79q-4 -214 27 -370q120 -210 290 -26q81 259 -26 475h-27h27h-27zM674 1199q63 126 158 185v422q-161 36 -291 27q-146 -389 133 -634z" />
    <glyph glyph-name="numbersign" unicode="#" horiz-adv-x="1755" 
d="M280 1464l-73 -98q46 -280 317 -268l-24 -220q-401 169 -488 -97q173 -243 439 -220q-19 -198 -73 -341q99 -45 146 -122q263 91 268 414q140 -4 244 -24q-92 -314 122 -488q76 113 171 146l24 171v122l122 -24q252 288 -73 341l25 220q281 -170 341 98q-50 198 -244 195
l24 122q26 156 -121 195q-198 45 -244 -268l-317 48q2 284 -171 464q-134 -446 -415 -366zM1110 1000q7 -228 -196 -170q-137 58 -73 219z" />
    <glyph glyph-name="dollar" unicode="$" horiz-adv-x="1045" 
d="M536 1632q-161 9 -283 -22l-153 -196q27 -305 262 -458q34 -403 -262 -327l-87 -109q37 -197 218 -218q-46 -244 153 -305q145 97 152 262h109q646 318 66 806l22 131q608 -116 65 327q33 126 22 218q-109 60 -196 87q-70 -108 -88 -196zM517 1394q-100 -373 -156 0h156z
M624 520q-194 19 0 262q122 -147 0 -262z" />
    <glyph glyph-name="percent" unicode="%" horiz-adv-x="1357" 
d="M66 1797q-225 -912 531 -686q-47 -132 -110 -200l-23 -66l-44 -88l-22 -45l-266 -465v-66l45 -177q338 108 420 487q84 -321 332 -465q421 19 421 421q-139 434 -553 354q39 90 88 155q132 300 310 487q-43 128 -44 221q-297 -106 -443 -376q-124 454 -531 553zM848 374
l147 197q270 -324 -147 -197zM218 1348l130 172q238 -284 -130 -172z" />
    <glyph glyph-name="ampersand" unicode="&#x26;" horiz-adv-x="1315" 
d="M328 1669l46 -46l11 -23q-61 -332 80 -637l-34 -34l-34 -34l-23 -34l-23 -23q-90 -105 -136 -182l-34 -23q-81 -152 -171 -239l11 -239l57 -56q62 -28 91 -69q495 -117 819 194q64 -38 80 -103q360 -5 182 296l68 34q-39 92 -23 171q-73 15 -102 80l-80 -23l-68 -46
l-45 80l-23 11l-12 34l-22 12l-12 23q-68 92 -102 159q302 249 421 580q-273 299 -626 330q-202 -43 -296 -193zM818 1452q60 -146 -137 -238q-53 176 0 318q121 19 137 -80zM704 554q100 -20 114 -114q-779 -440 -228 239q73 -61 114 -125z" />
    <glyph glyph-name="quotesingle" unicode="'" horiz-adv-x="370" 
d="M27 1762q-79 -411 178 -577q357 558 -67 666z" />
    <glyph glyph-name="parenleft" unicode="(" horiz-adv-x="600" 
d="M33 707q-11 -421 273 -695h174q62 143 74 248q-32 109 -99 75q-316 750 149 1242q-39 198 -199 273q-505 -508 -372 -1143z" />
    <glyph glyph-name="parenright" unicode=")" horiz-adv-x="650" 
d="M111 1702q390 -801 -102 -1399q17 -135 0 -229q42 -124 153 -51q804 657 279 1807l-178 25q-107 -80 -152 -153z" />
    <glyph glyph-name="asterisk" unicode="*" horiz-adv-x="710" 
d="M170 1830q-35 -109 0 -188q-131 -33 -167 -146h63h167q-162 -131 -126 -271q127 2 167 104q76 -89 84 -188q89 75 104 167q101 -52 147 -104l62 104q-72 127 42 251l-167 41q55 99 42 188q-85 -30 -146 -104q0 119 -84 167q-72 -109 -188 -21z" />
    <glyph glyph-name="plus" unicode="+" horiz-adv-x="1260" 
d="M485 993q-372 78 -477 -228q82 -35 145 -103q202 70 373 62q56 -526 249 -477q151 191 62 477l83 21q616 118 104 311h-270q74 421 -145 580q-240 -250 -124 -643z" />
    <glyph glyph-name="comma" unicode="," horiz-adv-x="365" 
d="M1 406q25 -109 65 -174q-36 -286 0 -479q505 288 153 784h-87z" />
    <glyph glyph-name="hyphen" unicode="-" horiz-adv-x="1025" 
d="M591 1152q-257 -115 -483 -29q-313 -579 522 -408q155 59 290 29q221 312 0 466q-178 -111 -329 -58z" />
    <glyph glyph-name="hyphen" unicode="&#x2010;" horiz-adv-x="1025" 
d="M591 1152q-257 -115 -483 -29q-313 -579 522 -408q155 59 290 29q221 312 0 466q-178 -111 -329 -58z" />
    <glyph glyph-name="period" unicode="." horiz-adv-x="470" 
d="M68 6q303 -22 407 204q-156 226 -407 204q-105 -221 0 -408zM68 6q303 -22 407 204q-156 226 -407 204q-105 -221 0 -408zM68 6q303 -22 407 204q-156 226 -407 204q-105 -221 0 -408z" />
    <glyph glyph-name="slash" unicode="/" horiz-adv-x="1505" 
d="M1184 1874l-55 -55q-99 -124 -192 -191q-48 -90 -109 -137q-190 -377 -438 -574l-55 -164l-27 -55l-55 -55q-100 -264 -246 -437l82 -274l274 82q238 578 547 903q217 438 520 683v82q61 143 82 247q-167 37 -301 27z" />
    <glyph glyph-name="zero" unicode="0" horiz-adv-x="1492" 
d="M503 1712q-118 78 -239 75q-53 -58 -105 -90l-15 -44v-105q-35 -231 -30 -374q-123 -345 -104 -628q96 17 119 90q117 -378 404 -569q694 -279 942 599q59 1084 -658 1181q-199 -62 -314 -135zM1087 1099q65 -891 -404 -688q-286 344 -210 763q66 266 344 299
q239 -66 270 -374z" />
    <glyph glyph-name="one" unicode="1" horiz-adv-x="1419" 
d="M733 1798l-53 -27q-14 -23 -27 -26l-54 -27l-40 -14l-27 -27l-255 -121l-68 14q-83 -119 -94 -229q111 -90 215 -120l27 13l41 13q125 66 214 94l-13 -80v-40l-27 -108l-13 -40v-41q-65 -207 -54 -362l-13 -27q-8 -126 -41 -215h-53l-41 13h-40l-215 27
q-127 -135 -81 -295q157 -72 309 -81q-4 -35 0 -54q142 7 229 -13h53l229 -14h54l40 -13h40h54h40h269q32 75 67 121l-13 27h-41l-27 13l-120 54q-222 150 -457 161l13 67l27 68l14 80l13 67q16 113 40 188l14 81q33 101 40 175l13 80l14 41v40l13 27v53q13 64 14 108
q66 134 67 255q-48 92 -108 148q-81 -82 -188 -54z" />
    <glyph glyph-name="two" unicode="2" horiz-adv-x="1564" 
d="M378 1807l-39 -78l-26 -13l-13 -26q-160 -105 -235 -248q85 -185 274 -182q104 155 235 221q180 -248 221 -521q7 -259 -117 -443q-511 280 -678 -209q307 -362 730 -221q393 -163 743 -13l39 130l-39 13h-39q-62 31 -104 39l-40 13l-39 13h-39l-26 13l-208 52
q354 798 -235 1460q-123 45 -222 39q-79 -31 -143 -39z" />
    <glyph glyph-name="three" unicode="3" horiz-adv-x="1244" 
d="M90 1442q267 -109 445 66h131q137 -259 -366 -301l26 52q-149 -55 -236 -157q-72 -151 40 -248h39q123 -24 209 -13q278 62 497 -40q-35 -186 -157 -301q-97 -99 -52 0l-26 -26l-79 -52l-39 -13l-118 -52h-39l-275 -131q-41 -97 -78 -157l52 -53q602 -87 955 327
q405 478 -39 838q168 376 -78 641l-40 26l-52 -39l-26 13h-39l-105 26h-131q-321 -110 -419 -406z" />
    <glyph glyph-name="four" unicode="4" horiz-adv-x="1359" 
d="M134 1711l11 -46l-11 -24l-12 -199q-25 -157 -12 -257q-7 -97 12 -176q-129 -137 -117 -304l23 -36q135 -16 223 -82q114 1 187 71h47l35 -12h35l188 -12v-117l23 -23v-35q36 -114 35 -199v-36q40 -128 35 -222l24 12l105 105q17 78 47 129v35q69 169 59 328
q186 68 269 222q-62 95 -258 82v71l12 58v152v47q16 122 12 199v35l11 141q-37 60 -81 93q-137 -8 -223 -93q3 -70 -12 -129l-11 -550h-94q-160 3 -269 35q-43 181 -12 328v35v35v35l12 94v35v35q26 91 23 176q-94 104 -211 105q-78 -63 -105 -141z" />
    <glyph glyph-name="five" unicode="5" horiz-adv-x="1045" 
d="M81 1167q-74 -105 -47 -224q20 -12 23 -24l83 -106q110 -16 165 47l83 12q373 -180 342 -472q-251 -152 -590 59q-61 -48 -130 -59q358 -677 933 -201q198 306 11 578q-209 339 -566 426v35l12 189q229 47 460 -106q112 91 153 189q2 76 -35 129l-142 24q-221 89 -389 95
q-59 98 -165 94q-219 -329 -201 -685z" />
    <glyph glyph-name="six" unicode="6" horiz-adv-x="1470" 
d="M656 1842q-709 -244 -583 -1245q-125 -118 -40 -278q81 -64 159 -13q266 -298 623 -292q414 38 543 398q-53 585 -954 384q-9 978 610 556q68 -1 119 26l13 40q41 106 53 186q-235 245 -530 238h-13h13h-13zM1027 491q-208 -276 -477 -26q-29 56 146 66q193 16 331 -40z
" />
    <glyph glyph-name="seven" unicode="7" horiz-adv-x="1314" 
d="M856 1772h-40l-53 13h-147l-27 14h-147l-53 13h-93l-241 27l-26 -40q-42 -166 -14 -307h94l53 -14q80 4 147 -13h53h94l240 -27l-27 -93l-40 -54l-13 -53l-27 -53l-27 -40q-30 -107 -80 -174l-26 -53l-14 -67l-26 -40l-14 -40l-26 -40l-14 -53l-26 -54l-54 -107
q-28 -148 -80 -240q-27 -155 -27 -267q99 -32 174 0l27 40l80 107l13 27l40 93l120 174l13 53l27 54l80 146l14 40l13 40l27 67l66 107l14 53l13 40l27 40l133 294q78 -45 160 -27q259 450 -320 494z" />
    <glyph glyph-name="eight" unicode="8" horiz-adv-x="1149" 
d="M693 1790q-287 -11 -451 -203q-114 -392 180 -631q-676 -396 -236 -856l112 -34q656 -211 823 259q8 406 -214 676q268 302 135 586q-24 297 -315 271zM862 1362q32 -156 -102 -203q-169 -33 -236 124q-92 164 79 214q196 31 259 -135zM828 336q-937 -125 -169 496
q209 -205 169 -496z" />
    <glyph glyph-name="nine" unicode="9" horiz-adv-x="1064" 
d="M8 1395q-31 -671 577 -505l-12 -96l-12 -36q-13 -93 -36 -156v-60q-44 -215 -36 -361l24 -96l48 -84l72 60q41 98 96 156q26 101 61 169l12 48l12 36l36 132v36l24 96v48l12 24l24 181l12 24q33 210 120 348q-2 59 -48 72v84q19 68 12 121q-21 12 -24 24l-48 12
q-117 51 -205 72q-165 110 -336 108q-337 -121 -385 -457zM657 1323q-18 -115 -120 -120q-113 -54 -216 -24q-20 207 84 360q266 -12 252 -216z" />
    <glyph glyph-name="colon" unicode=":" horiz-adv-x="525" 
d="M23 1267q650 -4 293 455h-228q-111 -264 -65 -455zM23 227q950 176 65 455q-119 -252 -65 -455z" />
    <glyph glyph-name="semicolon" unicode=";" horiz-adv-x="505" 
d="M9 1647q-39 -690 487 -227q-103 203 -260 292zM53 478l94 -275q-53 -259 23 -450q317 92 282 425q7 375 -305 425z" />
    <glyph glyph-name="less" unicode="&#x3c;" horiz-adv-x="1004" 
d="M512 1409q-209 -276 -469 -384q-41 -159 -43 -278q106 -42 192 -43q36 -21 43 -42l64 -43q35 -21 42 -43l128 -85l107 -107l278 -149q103 22 149 107l-64 128l-171 128l-21 42l-320 235q215 352 512 534q-67 175 -213 213q-108 -142 -214 -213z" />
    <glyph glyph-name="equal" unicode="=" horiz-adv-x="1060" 
d="M14 1173q103 -54 183 -82l81 -20h102l41 20h142h81h61h61q137 30 244 21q37 148 21 264h-224h-102h-61h-81h-61h-407q-41 -127 -81 -203zM34 603q202 -96 387 -81l61 20h61h61q239 -9 406 21q38 151 0 264h-61h-61h-101h-61h-82h-61h-406q-232 -112 -143 -224z" />
    <glyph glyph-name="greater" unicode="&#x3e;" horiz-adv-x="909" 
d="M6 1412l64 -43l43 -22l22 -43l43 -21l365 -279q-77 -148 -150 -215l-43 -22l-22 -42l-43 -65l-43 -43q-125 -102 -193 -193l21 -150l194 -22q72 87 150 129l107 107q153 240 344 365q49 179 43 301q-306 102 -472 301q-143 96 -258 150q-157 -54 -172 -193z" />
    <glyph glyph-name="question" unicode="?" horiz-adv-x="1015" 
d="M715 1817q-440 -76 -708 -402q74 -211 283 -188q348 473 307 70q-201 -308 -236 -590h-24h24h-24q80 -115 166 -165l141 47q43 173 24 307q265 252 307 567q166 309 -236 401zM340 277q52 -329 332 -277q105 212 28 415h-111q-124 -98 -249 -138z" />
    <glyph glyph-name="at" unicode="@" horiz-adv-x="1780" 
d="M633 1810q-175 -43 -287 -104q-609 -986 -104 -1664h78l78 52q334 -113 625 -78q375 -12 603 473q170 302 125 697q-318 705 -1040 650q-39 -30 -78 -26zM1475 798l-150 30q-131 477 -458 670q511 -16 608 -700zM872 1506q-543 -638 -107 -1109q-861 255 -54 1075z
M1127 978q-373 -489 -182 78zM761 406q303 74 498 168q455 -172 -498 -168z" />
    <glyph glyph-name="A" unicode="A" horiz-adv-x="1117" 
d="M544 1693l-104 -181l-122 -364l-115 -70l-49 -123l13 -127q-81 -163 -140 -323l-26 -362q84 -104 181 -129l129 129l115 405l299 60q-68 -414 -17 -390l94 -230q522 801 129 1628l26 103q-117 62 -181 129zM554 908l109 260l63 -246z" />
    <glyph glyph-name="B" unicode="B" horiz-adv-x="1274" 
d="M216 1686v-79l-14 -91q0 -315 -104 -547q-36 -106 26 -196v-52l-26 -52q-2 -75 -26 -131v-104l-13 -39v-91l-26 -104q-20 -45 -26 -92q264 -158 534 -78q417 -42 561 300q333 434 -66 756q409 336 79 534l13 39q-312 194 -613 196q-187 -57 -299 -169zM763 1112
q-159 -50 -274 -52v39l13 39v39v39l13 92q1 84 13 143q468 15 235 -339zM802 486q-125 -226 -378 -104q-73 78 26 339l39 13l39 13q175 1 313 52q70 -172 -39 -313z" />
    <glyph glyph-name="C" unicode="C" horiz-adv-x="1247" 
d="M469 1796q-677 -643 -371 -1466q110 -369 474 -326q398 -21 534 311q-20 50 -59 44q-484 -198 -638 178q-112 486 149 844q153 176 340 59q-28 -100 30 -163l104 -14q500 351 -178 592h-44h-178q-89 -42 -163 -59z" />
    <glyph glyph-name="D" unicode="D" horiz-adv-x="1318" 
d="M185 1577q24 -11 37 -43l-12 -155l-13 -241l-24 -227q-23 -114 -25 -184q-46 -155 -37 -283q-72 -35 -110 -85q-20 -163 0 -283q59 -50 98 -71h37l37 14h37h36q69 18 136 14q67 34 122 43q684 5 787 694q25 171 -13 311q-14 14 -12 29l-24 28l-13 42q-64 83 -98 156
q-58 49 -86 85l-74 99q-110 77 -172 170q-73 48 -110 114l-49 -15l-25 15q-212 56 -356 42q-71 -136 -74 -269zM979 656q-231 -370 -528 -70q2 107 24 184v42q25 115 25 198l12 43v42v43l12 28l13 227q493 -173 442 -737z" />
    <glyph glyph-name="E" unicode="E" horiz-adv-x="1070" 
d="M252 1814q-41 -94 -82 -149l-13 -27q-47 -53 -68 -108q64 -123 54 -244q-19 -176 -108 -284q-8 -147 41 -244l-41 -230l-14 -95q-31 -203 -13 -339q131 -46 257 -27h41q254 -89 474 -68q51 86 54 163q-114 81 -162 190l-109 13q-127 40 -216 54v41l13 27v41l27 108l27 95
h41l27 13h108q129 19 217 0q505 183 41 353l-68 -28h-41l-149 28l-135 27v40l13 27l14 244l41 14l54 13h108q185 46 312 54q148 222 -176 339l-82 -27h-108h-41l-40 -14l-27 14l-95 13h-41q-64 14 -108 14z" />
    <glyph glyph-name="F" unicode="F" horiz-adv-x="1255" 
d="M178 1353q-18 -52 -13 -101q-20 -75 -25 -138q-106 -70 -138 -176v-126q87 -75 75 -163q-1 -62 -12 -100v-101q6 -194 -38 -326q51 -45 63 -88q186 -114 289 125q-57 316 63 566h37l101 -26h50l38 -12l37 -13l214 -25q102 -34 188 -38q65 95 38 189q-42 89 -88 138
q-897 94 -440 452h88l76 -12q100 -32 175 -38l164 -38q33 61 75 88q-10 140 -63 239l-125 38q-222 71 -377 75q-170 113 -352 113q-141 -245 -100 -502z" />
    <glyph glyph-name="G" unicode="G" 
d="M198 248l180 -152q290 -188 539 14q298 121 331 442q-82 530 -787 414l-28 -55q-24 -78 -14 -138q21 -2 42 13q54 -25 83 -69q24 -13 27 -27l42 -14l110 -69q54 -49 97 -69q-163 -130 -345 -83l-56 97q-207 559 263 911q167 -70 304 -69q115 69 179 152q-64 322 -456 304
q-1073 -568 -511 -1602z" />
    <glyph glyph-name="H" unicode="H" horiz-adv-x="1310" 
d="M212 1734q-5 -99 -26 -167v-38l-26 -103q-1 -68 -13 -103q-9 -93 -25 -154v-38q-19 -53 -13 -103q-24 -75 -26 -142l-13 -89q-27 -184 -64 -296l13 -244q14 -19 13 -39l13 -64l25 -115q64 25 103 51l13 38l128 270v39l13 25l13 52l39 244l25 -13l39 -13l25 -13
q207 -63 335 -77v-38q45 -119 51 -206q-11 -229 64 -398l103 128q19 66 38 103l26 39l13 38l13 52l13 38l25 39l13 38q10 92 39 155l51 141v38v103q-23 44 -26 90l13 51v39q13 61 13 103v38v39q13 61 13 103v38v52v38v257q-252 200 -360 -116l39 -51l13 -26v-77l-13 -38
q18 -285 -52 -501l-89 13l-90 12l-26 13h-39l-90 39l-128 51v52q22 71 26 128q12 61 12 103l13 26v38l13 90q40 148 26 270q-74 73 -154 64h-26q-62 -78 -128 -116z" />
    <glyph glyph-name="I" unicode="I" horiz-adv-x="1232" 
d="M301 1570q40 -75 54 -147h40q152 67 280 67v-40q-37 -131 -40 -227l-27 -80l-26 -227l-14 -40l-13 -133l-13 -27q-7 -144 -27 -240q-295 -63 -307 94q-193 -105 -200 -307l53 -40l147 -54l40 -13l27 -13l40 -14l307 -80q16 -23 13 -53l107 13l93 14q142 -11 240 26
q28 64 40 120q-194 113 -280 267l13 54v53l14 67v40l13 53l13 40v53l14 54l13 146l13 54v40l14 26l40 267q377 -10 360 227q-49 93 -93 147l-40 13l-147 27q-74 -10 -134 0l-26 13h-40h-40h-40l-54 13q-176 -9 -306 27q-126 -118 -121 -280z" />
    <glyph glyph-name="J" unicode="J" horiz-adv-x="1525" 
d="M472 1833l-237 -14l-83 -28q3 -235 153 -363q102 2 167 56q131 23 224 14q-24 -674 -335 -1159q-71 -3 -112 -14q-70 133 -139 210l-98 14q-61 -550 391 -545l97 14q14 25 28 28l28 28l84 56q47 65 98 98l111 223l14 42l14 28l56 195l42 112v42l14 28l28 111l14 28
q75 239 69 405q297 -12 391 209q-102 52 -167 98q-138 37 -224 84l-42 -28q-66 13 -111 14q-250 44 -419 28z" />
    <glyph glyph-name="K" unicode="K" horiz-adv-x="1239" 
d="M236 1761q-20 -75 -26 -130v-38q-29 -95 -25 -169q-24 -75 -26 -143q-82 -52 -117 -117l26 -116q-53 -113 13 -208l-13 -91l-13 -26l-13 -77l-13 -104q4 -120 -26 -208q36 -125 39 -207l26 -117q39 -7 65 52l26 26l13 26l26 13q24 77 64 129l13 39q40 103 78 169
q8 153 65 272l26 -51l26 -26l26 -39l13 -39q68 -77 103 -143l39 -91q50 -54 78 -104l13 -38q104 -87 156 -169l26 -13l77 -26q44 51 52 91l26 78q-35 73 -39 129l-13 52q-54 109 -77 182q-23 13 -26 26l-26 39l-13 39q-23 13 -26 26l-13 26l-26 38q-111 152 -156 260
q431 116 532 493q-323 12 -558 -156l-142 -52v52l13 52v39l13 39v39l39 207q-96 132 -234 156z" />
    <glyph glyph-name="L" unicode="L" horiz-adv-x="1524" 
d="M442 1795q-21 -72 -42 -111l14 -98l-14 -27q-24 -149 -69 -250l-14 -97l-56 -139q-37 -277 -166 -458q-30 -110 -84 -194q-8 -159 70 -277q9 -81 28 -139l166 97q104 5 180 -14h42l69 -14h42q110 -28 194 -27l181 -28h55l28 -14q190 43 333 28l83 125q-127 167 -319 235
l-111 -27l-42 14h-55l-70 13h-41l-42 14q-73 2 -111 14q-132 8 -222 28l28 97v42l28 97l14 27l27 98l14 55l70 250l13 69l14 42l14 27l70 236v42l55 222q-154 77 -277 97z" />
    <glyph glyph-name="M" unicode="M" horiz-adv-x="1532" 
d="M1344 1821l-176 -136q-72 -72 -109 -122q-91 -195 -231 -299q-145 199 -312 299q0 102 -14 163l-149 108q-96 -115 -217 -67q-67 -94 -82 -191q79 -120 68 -230v-41q-19 -56 -13 -109l-28 -176q-4 -105 -27 -177q0 -186 -54 -326l14 -95q21 -50 27 -95l54 -245l27 14
l68 82l54 67l14 41l14 41l81 163l27 190v54l14 28l13 122v40v41l14 41q5 112 27 190q185 -200 204 -448q50 -62 68 -122l54 13q14 24 27 27l109 191l27 13l27 14l14 27l27 13q50 67 95 109q0 -148 -27 -244v-41q-51 -191 -27 -353l-28 -82l28 -298l54 -14q388 516 339 1236
q40 98 41 176q46 75 68 136q-29 155 -14 272q-88 35 -163 27z" />
    <glyph glyph-name="N" unicode="N" horiz-adv-x="1220" 
d="M1135 1903q-18 -69 -36 -67l-36 -36q-40 -84 -108 -120l-36 -60l-12 -36q25 -44 12 -120l-24 -132l-12 -36l-12 -60l-12 -36v-36l-24 -96q-39 -112 -48 -192l-24 36q-17 60 -36 96l-108 300q55 132 36 252q-139 94 -276 48q-95 -66 -144 -132l-24 -60q-27 -99 -24 -228
q-30 -66 -60 -108v-48l-12 -84l-12 -84l-12 -72l-12 -36l-12 -84v-84l-12 -36q-2 -69 -12 -120v-36q-30 -119 -36 -204q89 -87 108 -192q81 100 180 144q23 306 156 528l24 -36l24 -36l12 -24l48 -84q55 -194 168 -324q98 -19 180 0q392 488 300 1056q51 363 -60 624h-12h12
z" />
    <glyph glyph-name="O" unicode="O" horiz-adv-x="1422" 
d="M798 1819h-43h-44q-170 -100 -231 -21l-55 -20l-76 -191l-29 -29l-145 -188l-15 -44l-43 -116l-15 -43l-101 -261l58 -174q-106 -499 319 -711q85 -22 159 -14q712 309 870 1029q-40 629 -580 812q-14 -25 -29 -29zM987 1007q-123 -386 -406 -594q-87 182 -58 362
q-28 136 -15 232l44 58l72 116q81 81 116 160q201 -41 247 -334z" />
    <glyph glyph-name="P" unicode="P" horiz-adv-x="1354" 
d="M178 1449q-14 -75 -13 -133q-31 -95 -27 -173q-232 -181 -53 -400l-13 -66q1 -138 -67 -240q148 -917 399 67q6 140 40 239q852 -159 852 493q-115 621 -892 559q-58 33 -146 53q-285 -197 -80 -399zM937 1116q-218 -159 -466 -67l13 40v67l13 40v40v40l27 173
q456 37 413 -333z" />
    <glyph glyph-name="Q" unicode="Q" horiz-adv-x="1664" 
d="M341 1542q-100 79 -188 -13q-31 -79 -67 -121q88 -334 -68 -565q-56 -278 148 -256q56 -329 283 -511q315 -110 579 0h80q87 -95 202 -81q43 156 14 283q203 222 255 471q100 375 -67 672v95q-275 351 -673 336q-306 -93 -498 -310zM1297 681q-65 -79 -121 -121l-121 242
q-127 -25 -216 -94q-57 -39 -80 -81q100 -132 134 -255q-435 -108 -404 363q-42 608 404 794q463 -70 404 -848z" />
    <glyph glyph-name="R" unicode="R" horiz-adv-x="1179" 
d="M81 975q-32 -151 -97 -249q9 -104 49 -167l12 -41v-195q15 -184 12 -305q21 -14 24 -28q74 -33 146 -13q22 49 49 83l12 28q27 164 85 263l61 -125l48 -27l49 -56l60 -28l73 -41l49 -42q96 -37 158 -83l48 -28l49 -14l97 -69l37 -14l24 -28l36 -14l37 -13l194 -125
l158 -28l61 97v97q-21 14 -24 28q-22 14 -25 28l-24 14l-36 27q-57 47 -85 97q-72 41 -110 97l-24 14l-24 14l-73 56l-73 27l-24 28l-25 14q-128 58 -206 153l-25 13l-24 14l-73 56q-121 90 -182 208l-61 55q744 349 547 860q-333 242 -668 236q-424 -68 -292 -874z
M385 1242v36l36 219q341 -88 -36 -255z" />
    <glyph glyph-name="S" unicode="S" horiz-adv-x="1427" 
d="M271 1318q86 -419 743 -548q61 -58 65 -130q-196 -204 -430 -274q-125 -81 -235 -104q-13 -15 -26 -13q-139 -78 -248 -104q-88 -55 -130 -117q887 -112 1343 443q226 571 -652 755q-67 49 -104 105q175 229 482 182q246 330 -143 339q-618 -62 -665 -534z" />
    <glyph glyph-name="T" unicode="T" horiz-adv-x="1028" 
d="M-4 1481q72 -226 313 -204q-18 -103 -13 -178v-408q4 -159 -14 -273q20 -99 0 -177q17 -76 14 -149l27 13q185 -249 327 123v109l-14 95l14 41v95l13 82q39 186 27 313v41q64 190 55 354q247 59 245 314q-260 211 -558 177q-330 -83 -436 -368z" />
    <glyph glyph-name="U" unicode="U" horiz-adv-x="1393" 
d="M1009 1764l-30 -84l-30 -69l-15 -70l-30 -70l-30 -70l-15 -70l-15 -98q-40 -78 -60 -153q-22 -162 -105 -266q4 -98 -30 -167q-82 -64 -149 28l-45 70v41v56q21 117 15 196v140l15 279v42q-67 122 -75 237q-64 63 -135 84l-121 -140q-166 -530 -98 -752l-6 -267
q-13 -128 0 -210q153 -519 644 -293l142 -190q179 56 307 218l15 56v42q-43 155 -30 279v84q35 85 45 153l15 70q31 83 30 154l15 42l30 140q111 271 105 488q-80 151 -240 126l-15 42z" />
    <glyph glyph-name="V" unicode="V" horiz-adv-x="1221" 
d="M2 1683q47 -84 54 -242l-14 -296v-444q47 -197 14 -350q89 -146 94 -282q131 -109 269 -54q410 161 484 551l27 14q244 479 256 861q-41 27 -67 13l-41 -53l-27 -41l-40 -54l-94 -161l-40 -54l-41 -40l-40 -41l-14 -27q-64 -126 -148 -201q-67 -147 -161 -229
q-25 -2 -40 13q-22 122 -14 229q-33 67 -27 121v148v67v175v54v41q34 242 27 390q-94 64 -188 67q-162 -50 -229 -175z" />
    <glyph glyph-name="W" unicode="W" horiz-adv-x="1724" 
d="M-3 1636q16 -134 96 -227l12 -84l12 -72q24 -72 24 -132q44 -142 48 -251q84 -231 72 -420q30 -48 35 -96q21 -181 96 -311h96q56 63 96 96l24 60q41 55 60 95v36l24 24q36 136 84 216q18 -66 24 -120q55 -115 47 -215l24 -24l12 -36q59 -113 84 -192q464 366 539 887
q110 245 96 479q56 141 60 263q-96 -61 -144 -143l-24 -48l-24 -36l-12 -36l-24 -24l-24 -48q-31 -95 -71 -156l-12 -36l-12 -24l-12 -36l-12 -24q-31 -59 -48 -107l-60 -120l-12 -24l-12 -24q-41 -90 -84 -144l-12 48l-12 24q-24 113 -60 192q-32 91 -60 143q38 243 12 420
q-10 22 -24 24l-36 -36l-24 -24q-163 26 -299 -96l-36 -72q93 -212 -12 -383l-12 48l-12 71q-13 32 -12 60l-24 60v60q-13 18 -12 36q-32 119 -36 204q-23 69 -24 120l-12 48l-48 275q-84 53 -167 48q-122 -91 -156 -216z" />
    <glyph glyph-name="X" unicode="X" horiz-adv-x="1328" 
d="M1192 1822q-12 -20 -27 -25l-18 -39l-19 -25l-18 -26l-101 -153l-27 -26q-29 -58 -64 -77q-9 -22 -19 -25q-84 -129 -155 -192q-93 102 -137 243q-98 128 -110 294q-94 -10 -156 -51q-100 -143 -82 -320q87 -96 128 -192q93 -95 146 -218l-18 -25l-27 -13l-19 -38
l-36 -26l-19 -38l-18 -26l-55 -51q-9 -22 -18 -26q-32 -60 -55 -89l-18 -13q-68 -144 -147 -218q-44 -121 -82 -192q-22 -132 -9 -230q65 76 119 102l27 52l37 25l45 51l28 26l37 51l36 26q49 72 101 102q70 126 155 192q48 82 101 128l9 -38l19 -13l118 -230q11 -13 10 -26
q60 -50 91 -115l28 -26l9 -25q36 -23 55 -64q50 -33 82 -77h82v77l-36 89v39l-18 25l-10 39l-18 38l-9 38q-38 87 -55 154l-18 13l-9 38l-19 13l-9 38l-18 13l-9 39q-50 60 -74 127l-18 13v39l37 25l36 39l37 64q46 39 73 76l28 39l27 25q46 86 92 128l9 26l18 26l18 12
q47 86 92 141l-9 39q23 94 18 166q-58 57 -119 64q-25 -20 -46 -26z" />
    <glyph glyph-name="Y" unicode="Y" horiz-adv-x="1187" 
d="M265 1822q-176 -87 -259 -220l13 -65h39q21 -13 26 -26l38 -25l26 -26l39 -26l26 -26l26 -39q104 -62 155 -129q-8 -82 13 -143q63 -92 91 -168l-13 -39q-15 -98 -39 -155q-16 -178 -78 -298l13 -155q-14 -148 78 -233q8 -98 52 -26l26 26l13 26l38 90l26 13
q45 100 91 156l26 129l91 285v142q33 104 38 181q28 103 26 182q254 215 285 491q-285 85 -531 -271q-225 149 -310 362l-52 13z" />
    <glyph glyph-name="Z" unicode="Z" 
d="M317 1451q22 10 24 24l37 -24q20 -12 24 -24q227 -83 340 -183l-36 -24l-25 -48l-36 -49l-37 -37l-36 -48l-24 -37l-37 -24q-12 -21 -24 -24l-37 -49l-72 -61q-68 -97 -122 -145l-24 -49q-30 -74 -61 -121q-56 -215 -170 -353v-48q40 -80 97 -122q154 29 255 109l25 -12
h48q170 -32 280 -36q277 -95 510 -61q81 66 109 146l-24 12l-25 12l-12 24q-94 31 -145 73l-37 13l-49 12l-97 36l-36 12l-49 12l-24 13q-18 -14 -36 -13l-25 13l-24 12l-194 36v37q149 336 425 510l12 24l24 12l12 25l25 12q44 59 85 97q63 17 109 61q19 80 61 134
q-160 291 -474 328q-176 164 -377 194q-248 -153 -133 -401z" />
    <glyph glyph-name="bracketleft" unicode="[" horiz-adv-x="935" 
d="M58 1679v-755l-25 -50q-38 -452 0 -754l76 -101l75 -25q298 111 578 101q185 43 176 226l-126 126q-281 -52 -477 -25l50 201v427v76v301q425 -70 528 252l-50 75q-428 15 -679 101q-38 -117 -126 -176z" />
    <glyph glyph-name="backslash" unicode="\" horiz-adv-x="1508" 
d="M9 1881v-84q109 -182 139 -306q127 -166 167 -307l84 -83l28 -112q143 -152 195 -306q44 -36 55 -84q49 -28 56 -55q98 -124 139 -223q240 -211 335 -418l167 -28q101 155 139 279l-56 55q-97 107 -139 195q-215 218 -306 418l-56 28l-28 84l-139 167l-28 83l-28 56
l-111 167q-176 306 -251 529q-111 62 -195 56z" />
    <glyph glyph-name="bracketright" unicode="]" horiz-adv-x="1096" 
d="M61 1619q322 -248 665 -160v-744q27 -188 27 -319q-568 124 -745 -266l186 -106l53 26l80 -26h80h80h186l292 -27l27 53l53 186v80q84 311 53 558v80v80q-52 412 -26 664q-394 168 -771 160q-193 -83 -240 -239z" />
    <glyph glyph-name="asciicircum" unicode="^" horiz-adv-x="1045" 
d="M399 1792l-130 -173l-21 -64l-43 -44q-33 -111 -65 -173q-92 -142 -130 -237q140 -88 259 -108l217 454l21 -44q139 -122 195 -259q145 -111 238 -216h86q-40 533 -519 929z" />
    <glyph glyph-name="underscore" unicode="_" horiz-adv-x="1300" 
d="M47 -306h110h109h110h65q160 -29 263 -22l66 22h65h438q23 166 22 285h-88h-65q-89 31 -175 22h-219l-44 -22h-66h-65h-175q-204 -3 -351 22q-84 -168 0 -307z" />
    <glyph glyph-name="grave" unicode="`" horiz-adv-x="709" 
d="M3 1634q48 -27 55 -54l54 -55l28 -164q197 -176 301 -356q130 17 218 -27q175 497 -437 875z" />
    <glyph glyph-name="a" unicode="a" horiz-adv-x="1117" 
d="M544 1693l-104 -181l-122 -364l-115 -70l-49 -123l13 -127q-81 -163 -140 -323l-26 -362q84 -104 181 -129l129 129l115 405l299 60q-68 -414 -17 -390l94 -230q522 801 129 1628l26 103q-117 62 -181 129zM554 908l109 260l63 -246z" />
    <glyph glyph-name="b" unicode="b" horiz-adv-x="1274" 
d="M216 1686v-79l-14 -91q0 -315 -104 -547q-36 -106 26 -196v-52l-26 -52q-2 -75 -26 -131v-104l-13 -39v-91l-26 -104q-20 -45 -26 -92q264 -158 534 -78q417 -42 561 300q333 434 -66 756q409 336 79 534l13 39q-312 194 -613 196q-187 -57 -299 -169zM763 1112
q-159 -50 -274 -52v39l13 39v39v39l13 92q1 84 13 143q468 15 235 -339zM802 486q-125 -226 -378 -104q-73 78 26 339l39 13l39 13q175 1 313 52q70 -172 -39 -313z" />
    <glyph glyph-name="c" unicode="c" horiz-adv-x="1247" 
d="M469 1796q-677 -643 -371 -1466q110 -369 474 -326q398 -21 534 311q-20 50 -59 44q-484 -198 -638 178q-112 486 149 844q153 176 340 59q-28 -100 30 -163l104 -14q500 351 -178 592h-44h-178q-89 -42 -163 -59z" />
    <glyph glyph-name="d" unicode="d" horiz-adv-x="1318" 
d="M185 1577q24 -11 37 -43l-12 -155l-13 -241l-24 -227q-23 -114 -25 -184q-46 -155 -37 -283q-72 -35 -110 -85q-20 -163 0 -283q59 -50 98 -71h37l37 14h37h36q69 18 136 14q67 34 122 43q684 5 787 694q25 171 -13 311q-14 14 -12 29l-24 28l-13 42q-64 83 -98 156
q-58 49 -86 85l-74 99q-110 77 -172 170q-73 48 -110 114l-49 -15l-25 15q-212 56 -356 42q-71 -136 -74 -269zM979 656q-231 -370 -528 -70q2 107 24 184v42q25 115 25 198l12 43v42v43l12 28l13 227q493 -173 442 -737z" />
    <glyph glyph-name="e" unicode="e" horiz-adv-x="1070" 
d="M252 1814q-41 -94 -82 -149l-13 -27q-47 -53 -68 -108q64 -123 54 -244q-19 -176 -108 -284q-8 -147 41 -244l-41 -230l-14 -95q-31 -203 -13 -339q131 -46 257 -27h41q254 -89 474 -68q51 86 54 163q-114 81 -162 190l-109 13q-127 40 -216 54v41l13 27v41l27 108l27 95
h41l27 13h108q129 19 217 0q505 183 41 353l-68 -28h-41l-149 28l-135 27v40l13 27l14 244l41 14l54 13h108q185 46 312 54q148 222 -176 339l-82 -27h-108h-41l-40 -14l-27 14l-95 13h-41q-64 14 -108 14z" />
    <glyph glyph-name="f" unicode="f" horiz-adv-x="1255" 
d="M178 1353q-18 -52 -13 -101q-20 -75 -25 -138q-106 -70 -138 -176v-126q87 -75 75 -163q-1 -62 -12 -100v-101q6 -194 -38 -326q51 -45 63 -88q186 -114 289 125q-57 316 63 566h37l101 -26h50l38 -12l37 -13l214 -25q102 -34 188 -38q65 95 38 189q-42 89 -88 138
q-897 94 -440 452h88l76 -12q100 -32 175 -38l164 -38q33 61 75 88q-10 140 -63 239l-125 38q-222 71 -377 75q-170 113 -352 113q-141 -245 -100 -502z" />
    <glyph glyph-name="g" unicode="g" 
d="M198 248l180 -152q290 -188 539 14q298 121 331 442q-82 530 -787 414l-28 -55q-24 -78 -14 -138q21 -2 42 13q54 -25 83 -69q24 -13 27 -27l42 -14l110 -69q54 -49 97 -69q-163 -130 -345 -83l-56 97q-207 559 263 911q167 -70 304 -69q115 69 179 152q-64 322 -456 304
q-1073 -568 -511 -1602z" />
    <glyph glyph-name="h" unicode="h" horiz-adv-x="1310" 
d="M212 1734q-5 -99 -26 -167v-38l-26 -103q-1 -68 -13 -103q-9 -93 -25 -154v-38q-19 -53 -13 -103q-24 -75 -26 -142l-13 -89q-27 -184 -64 -296l13 -244q14 -19 13 -39l13 -64l25 -115q64 25 103 51l13 38l128 270v39l13 25l13 52l39 244l25 -13l39 -13l25 -13
q207 -63 335 -77v-38q45 -119 51 -206q-11 -229 64 -398l103 128q19 66 38 103l26 39l13 38l13 52l13 38l25 39l13 38q10 92 39 155l51 141v38v103q-23 44 -26 90l13 51v39q13 61 13 103v38v39q13 61 13 103v38v52v38v257q-252 200 -360 -116l39 -51l13 -26v-77l-13 -38
q18 -285 -52 -501l-89 13l-90 12l-26 13h-39l-90 39l-128 51v52q22 71 26 128q12 61 12 103l13 26v38l13 90q40 148 26 270q-74 73 -154 64h-26q-62 -78 -128 -116z" />
    <glyph glyph-name="i" unicode="i" horiz-adv-x="1232" 
d="M301 1570q40 -75 54 -147h40q152 67 280 67v-40q-37 -131 -40 -227l-27 -80l-26 -227l-14 -40l-13 -133l-13 -27q-7 -144 -27 -240q-295 -63 -307 94q-193 -105 -200 -307l53 -40l147 -54l40 -13l27 -13l40 -14l307 -80q16 -23 13 -53l107 13l93 14q142 -11 240 26
q28 64 40 120q-194 113 -280 267l13 54v53l14 67v40l13 53l13 40v53l14 54l13 146l13 54v40l14 26l40 267q377 -10 360 227q-49 93 -93 147l-40 13l-147 27q-74 -10 -134 0l-26 13h-40h-40h-40l-54 13q-176 -9 -306 27q-126 -118 -121 -280z" />
    <glyph glyph-name="j" unicode="j" horiz-adv-x="1525" 
d="M472 1833l-237 -14l-83 -28q3 -235 153 -363q102 2 167 56q131 23 224 14q-24 -674 -335 -1159q-71 -3 -112 -14q-70 133 -139 210l-98 14q-61 -550 391 -545l97 14q14 25 28 28l28 28l84 56q47 65 98 98l111 223l14 42l14 28l56 195l42 112v42l14 28l28 111l14 28
q75 239 69 405q297 -12 391 209q-102 52 -167 98q-138 37 -224 84l-42 -28q-66 13 -111 14q-250 44 -419 28z" />
    <glyph glyph-name="k" unicode="k" horiz-adv-x="1239" 
d="M236 1761q-20 -75 -26 -130v-38q-29 -95 -25 -169q-24 -75 -26 -143q-82 -52 -117 -117l26 -116q-53 -113 13 -208l-13 -91l-13 -26l-13 -77l-13 -104q4 -120 -26 -208q36 -125 39 -207l26 -117q39 -7 65 52l26 26l13 26l26 13q24 77 64 129l13 39q40 103 78 169
q8 153 65 272l26 -51l26 -26l26 -39l13 -39q68 -77 103 -143l39 -91q50 -54 78 -104l13 -38q104 -87 156 -169l26 -13l77 -26q44 51 52 91l26 78q-35 73 -39 129l-13 52q-54 109 -77 182q-23 13 -26 26l-26 39l-13 39q-23 13 -26 26l-13 26l-26 38q-111 152 -156 260
q431 116 532 493q-323 12 -558 -156l-142 -52v52l13 52v39l13 39v39l39 207q-96 132 -234 156z" />
    <glyph glyph-name="l" unicode="l" horiz-adv-x="1524" 
d="M442 1795q-21 -72 -42 -111l14 -98l-14 -27q-24 -149 -69 -250l-14 -97l-56 -139q-37 -277 -166 -458q-30 -110 -84 -194q-8 -159 70 -277q9 -81 28 -139l166 97q104 5 180 -14h42l69 -14h42q110 -28 194 -27l181 -28h55l28 -14q190 43 333 28l83 125q-127 167 -319 235
l-111 -27l-42 14h-55l-70 13h-41l-42 14q-73 2 -111 14q-132 8 -222 28l28 97v42l28 97l14 27l27 98l14 55l70 250l13 69l14 42l14 27l70 236v42l55 222q-154 77 -277 97z" />
    <glyph glyph-name="m" unicode="m" horiz-adv-x="1532" 
d="M1344 1821l-176 -136q-72 -72 -109 -122q-91 -195 -231 -299q-145 199 -312 299q0 102 -14 163l-149 108q-96 -115 -217 -67q-67 -94 -82 -191q79 -120 68 -230v-41q-19 -56 -13 -109l-28 -176q-4 -105 -27 -177q0 -186 -54 -326l14 -95q21 -50 27 -95l54 -245l27 14
l68 82l54 67l14 41l14 41l81 163l27 190v54l14 28l13 122v40v41l14 41q5 112 27 190q185 -200 204 -448q50 -62 68 -122l54 13q14 24 27 27l109 191l27 13l27 14l14 27l27 13q50 67 95 109q0 -148 -27 -244v-41q-51 -191 -27 -353l-28 -82l28 -298l54 -14q388 516 339 1236
q40 98 41 176q46 75 68 136q-29 155 -14 272q-88 35 -163 27z" />
    <glyph glyph-name="n" unicode="n" horiz-adv-x="1220" 
d="M1135 1903q-18 -69 -36 -67l-36 -36q-40 -84 -108 -120l-36 -60l-12 -36q25 -44 12 -120l-24 -132l-12 -36l-12 -60l-12 -36v-36l-24 -96q-39 -112 -48 -192l-24 36q-17 60 -36 96l-108 300q55 132 36 252q-139 94 -276 48q-95 -66 -144 -132l-24 -60q-27 -99 -24 -228
q-30 -66 -60 -108v-48l-12 -84l-12 -84l-12 -72l-12 -36l-12 -84v-84l-12 -36q-2 -69 -12 -120v-36q-30 -119 -36 -204q89 -87 108 -192q81 100 180 144q23 306 156 528l24 -36l24 -36l12 -24l48 -84q55 -194 168 -324q98 -19 180 0q392 488 300 1056q51 363 -60 624h-12h12
z" />
    <glyph glyph-name="o" unicode="o" horiz-adv-x="1422" 
d="M798 1819h-43h-44q-170 -100 -231 -21l-55 -20l-76 -191l-29 -29l-145 -188l-15 -44l-43 -116l-15 -43l-101 -261l58 -174q-106 -499 319 -711q85 -22 159 -14q712 309 870 1029q-40 629 -580 812q-14 -25 -29 -29zM987 1007q-123 -386 -406 -594q-87 182 -58 362
q-28 136 -15 232l44 58l72 116q81 81 116 160q201 -41 247 -334z" />
    <glyph glyph-name="p" unicode="p" horiz-adv-x="1354" 
d="M178 1449q-14 -75 -13 -133q-31 -95 -27 -173q-232 -181 -53 -400l-13 -66q1 -138 -67 -240q148 -917 399 67q6 140 40 239q852 -159 852 493q-115 621 -892 559q-58 33 -146 53q-285 -197 -80 -399zM937 1116q-218 -159 -466 -67l13 40v67l13 40v40v40l27 173
q456 37 413 -333z" />
    <glyph glyph-name="q" unicode="q" horiz-adv-x="1664" 
d="M341 1542q-100 79 -188 -13q-31 -79 -67 -121q88 -334 -68 -565q-56 -278 148 -256q56 -329 283 -511q315 -110 579 0h80q87 -95 202 -81q43 156 14 283q203 222 255 471q100 375 -67 672v95q-275 351 -673 336q-306 -93 -498 -310zM1297 681q-65 -79 -121 -121l-121 242
q-127 -25 -216 -94q-57 -39 -80 -81q100 -132 134 -255q-435 -108 -404 363q-42 608 404 794q463 -70 404 -848z" />
    <glyph glyph-name="r" unicode="r" horiz-adv-x="1179" 
d="M81 975q-32 -151 -97 -249q9 -104 49 -167l12 -41v-195q15 -184 12 -305q21 -14 24 -28q74 -33 146 -13q22 49 49 83l12 28q27 164 85 263l61 -125l48 -27l49 -56l60 -28l73 -41l49 -42q96 -37 158 -83l48 -28l49 -14l97 -69l37 -14l24 -28l36 -14l37 -13l194 -125
l158 -28l61 97v97q-21 14 -24 28q-22 14 -25 28l-24 14l-36 27q-57 47 -85 97q-72 41 -110 97l-24 14l-24 14l-73 56l-73 27l-24 28l-25 14q-128 58 -206 153l-25 13l-24 14l-73 56q-121 90 -182 208l-61 55q744 349 547 860q-333 242 -668 236q-424 -68 -292 -874z
M385 1242v36l36 219q341 -88 -36 -255z" />
    <glyph glyph-name="s" unicode="s" horiz-adv-x="1427" 
d="M271 1318q86 -419 743 -548q61 -58 65 -130q-196 -204 -430 -274q-125 -81 -235 -104q-13 -15 -26 -13q-139 -78 -248 -104q-88 -55 -130 -117q887 -112 1343 443q226 571 -652 755q-67 49 -104 105q175 229 482 182q246 330 -143 339q-618 -62 -665 -534z" />
    <glyph glyph-name="t" unicode="t" horiz-adv-x="1028" 
d="M-4 1481q72 -226 313 -204q-18 -103 -13 -178v-408q4 -159 -14 -273q20 -99 0 -177q17 -76 14 -149l27 13q185 -249 327 123v109l-14 95l14 41v95l13 82q39 186 27 313v41q64 190 55 354q247 59 245 314q-260 211 -558 177q-330 -83 -436 -368z" />
    <glyph glyph-name="u" unicode="u" horiz-adv-x="1393" 
d="M1009 1764l-30 -84l-30 -69l-15 -70l-30 -70l-30 -70l-15 -70l-15 -98q-40 -78 -60 -153q-22 -162 -105 -266q4 -98 -30 -167q-82 -64 -149 28l-45 70v41v56q21 117 15 196v140l15 279v42q-67 122 -75 237q-64 63 -135 84l-121 -140q-166 -530 -98 -752l-6 -267
q-13 -128 0 -210q153 -519 644 -293l142 -190q179 56 307 218l15 56v42q-43 155 -30 279v84q35 85 45 153l15 70q31 83 30 154l15 42l30 140q111 271 105 488q-80 151 -240 126l-15 42z" />
    <glyph glyph-name="v" unicode="v" horiz-adv-x="1221" 
d="M2 1683q47 -84 54 -242l-14 -296v-444q47 -197 14 -350q89 -146 94 -282q131 -109 269 -54q410 161 484 551l27 14q244 479 256 861q-41 27 -67 13l-41 -53l-27 -41l-40 -54l-94 -161l-40 -54l-41 -40l-40 -41l-14 -27q-64 -126 -148 -201q-67 -147 -161 -229
q-25 -2 -40 13q-22 122 -14 229q-33 67 -27 121v148v67v175v54v41q34 242 27 390q-94 64 -188 67q-162 -50 -229 -175z" />
    <glyph glyph-name="w" unicode="w" horiz-adv-x="1724" 
d="M-3 1636q16 -134 96 -227l12 -84l12 -72q24 -72 24 -132q44 -142 48 -251q84 -231 72 -420q30 -48 35 -96q21 -181 96 -311h96q56 63 96 96l24 60q41 55 60 95v36l24 24q36 136 84 216q18 -66 24 -120q55 -115 47 -215l24 -24l12 -36q59 -113 84 -192q464 366 539 887
q110 245 96 479q56 141 60 263q-96 -61 -144 -143l-24 -48l-24 -36l-12 -36l-24 -24l-24 -48q-31 -95 -71 -156l-12 -36l-12 -24l-12 -36l-12 -24q-31 -59 -48 -107l-60 -120l-12 -24l-12 -24q-41 -90 -84 -144l-12 48l-12 24q-24 113 -60 192q-32 91 -60 143q38 243 12 420
q-10 22 -24 24l-36 -36l-24 -24q-163 26 -299 -96l-36 -72q93 -212 -12 -383l-12 48l-12 71q-13 32 -12 60l-24 60v60q-13 18 -12 36q-32 119 -36 204q-23 69 -24 120l-12 48l-48 275q-84 53 -167 48q-122 -91 -156 -216z" />
    <glyph glyph-name="x" unicode="x" horiz-adv-x="1328" 
d="M1192 1822q-12 -20 -27 -25l-18 -39l-19 -25l-18 -26l-101 -153l-27 -26q-29 -58 -64 -77q-9 -22 -19 -25q-84 -129 -155 -192q-93 102 -137 243q-98 128 -110 294q-94 -10 -156 -51q-100 -143 -82 -320q87 -96 128 -192q93 -95 146 -218l-18 -25l-27 -13l-19 -38
l-36 -26l-19 -38l-18 -26l-55 -51q-9 -22 -18 -26q-32 -60 -55 -89l-18 -13q-68 -144 -147 -218q-44 -121 -82 -192q-22 -132 -9 -230q65 76 119 102l27 52l37 25l45 51l28 26l37 51l36 26q49 72 101 102q70 126 155 192q48 82 101 128l9 -38l19 -13l118 -230q11 -13 10 -26
q60 -50 91 -115l28 -26l9 -25q36 -23 55 -64q50 -33 82 -77h82v77l-36 89v39l-18 25l-10 39l-18 38l-9 38q-38 87 -55 154l-18 13l-9 38l-19 13l-9 38l-18 13l-9 39q-50 60 -74 127l-18 13v39l37 25l36 39l37 64q46 39 73 76l28 39l27 25q46 86 92 128l9 26l18 26l18 12
q47 86 92 141l-9 39q23 94 18 166q-58 57 -119 64q-25 -20 -46 -26z" />
    <glyph glyph-name="y" unicode="y" horiz-adv-x="1187" 
d="M265 1822q-176 -87 -259 -220l13 -65h39q21 -13 26 -26l38 -25l26 -26l39 -26l26 -26l26 -39q104 -62 155 -129q-8 -82 13 -143q63 -92 91 -168l-13 -39q-15 -98 -39 -155q-16 -178 -78 -298l13 -155q-14 -148 78 -233q8 -98 52 -26l26 26l13 26l38 90l26 13
q45 100 91 156l26 129l91 285v142q33 104 38 181q28 103 26 182q254 215 285 491q-285 85 -531 -271q-225 149 -310 362l-52 13z" />
    <glyph glyph-name="z" unicode="z" 
d="M317 1451q22 10 24 24l37 -24q20 -12 24 -24q227 -83 340 -183l-36 -24l-25 -48l-36 -49l-37 -37l-36 -48l-24 -37l-37 -24q-12 -21 -24 -24l-37 -49l-72 -61q-68 -97 -122 -145l-24 -49q-30 -74 -61 -121q-56 -215 -170 -353v-48q40 -80 97 -122q154 29 255 109l25 -12
h48q170 -32 280 -36q277 -95 510 -61q81 66 109 146l-24 12l-25 12l-12 24q-94 31 -145 73l-37 13l-49 12l-97 36l-36 12l-49 12l-24 13q-18 -14 -36 -13l-25 13l-24 12l-194 36v37q149 336 425 510l12 24l24 12l12 25l25 12q44 59 85 97q63 17 109 61q19 80 61 134
q-160 291 -474 328q-176 164 -377 194q-248 -153 -133 -401z" />
    <glyph glyph-name="braceleft" unicode="{" horiz-adv-x="746" 
d="M127 1131l-126 -100q68 -148 101 -277q-65 -674 578 -754q36 190 0 302q-253 189 -251 477l-101 126q185 245 201 503q323 249 101 452q-539 -206 -503 -729z" />
    <glyph glyph-name="bar" unicode="|" horiz-adv-x="490" 
d="M123 1796v-130l-26 -52l-26 -571l-26 -78v-155q-5 -413 0 -675l130 -130q137 68 208 156l26 155v338l-26 130l26 78v103v78l26 182l26 571q-148 52 -260 52z" />
    <glyph glyph-name="braceright" unicode="}" horiz-adv-x="785" 
d="M77 1546q244 -192 249 -473l99 -149q-199 -243 -199 -498q-231 -179 -174 -423q189 16 299 50q235 311 249 647q89 43 149 100q-81 962 -672 1045q-28 -185 0 -299z" />
    <glyph glyph-name="asciitilde" unicode="~" horiz-adv-x="1249" 
d="M35 1435q194 -28 268 145q108 -2 166 -21q273 -206 558 -227q341 222 144 352q-130 83 -206 -42q-372 206 -724 207q-313 -161 -206 -414z" />
    </font>
</defs>
</svg>
